<svg xmlns="http://www.w3.org/2000/svg" width="180" height="60" viewBox="0 0 180 60">
    <g fill="none" fill-rule="evenodd">
        <path fill="#579A40" d="M0 0H180V60H0z"/>
        <path fill="#FFF" fill-rule="nonzero" d="M29.68 40.464c0 .968.75 1.75 1.68 1.75h8.4v-8.753H29.68v7.003zM53.2 24.708h-2.21c.325-.662.53-1.395.53-2.189 0-2.653-2.074-4.814-4.62-4.814-2.184 0-3.597 1.165-5.408 3.737-1.811-2.572-3.223-3.737-5.407-3.737-2.546 0-4.62 2.16-4.62 4.814 0 .794.2 1.527.53 2.189H29.68c-.93 0-1.68.782-1.68 1.75v4.377c0 .481.378.875.84.875h25.2c.462 0 .84-.394.84-.875v-4.377c0-.968-.751-1.75-1.68-1.75zm-17.12 0c-1.16 0-2.1-.98-2.1-2.189s.94-2.188 2.1-2.188c1.044 0 1.816.18 4.52 4.377h-4.52zm10.82 0h-4.52c2.698-4.186 3.449-4.377 4.52-4.377 1.16 0 2.1.98 2.1 2.188 0 1.21-.94 2.189-2.1 2.189zm-3.78 17.506h8.4c.929 0 1.68-.782 1.68-1.75V33.46H43.12v8.753z"/>
        <text fill="#FFF" font-family="Roboto, sans-serif" font-size="23" font-style="italic" font-weight="700" letter-spacing="-.051">
            <tspan x="79.944" y="38.484">Donate</tspan>
        </text>
    </g>
</svg>
