<svg xmlns="http://www.w3.org/2000/svg" width="13" height="13" viewBox="0 0 13 13">
    <path fill="#FFF" fill-rule="evenodd" d="M8.638 2.416L7.265 3.79H1.373v7.834h7.834V5.731l1.373-1.373v7.952c0 .379-.307.686-.686.686H.687c-.38 0-.687-.307-.687-.686V3.103c0-.38.307-.687.687-.687h7.951zM12.195 0c.442 0 .801.36.801.801V5.27c0 .441-.359.8-.8.8-.442 0-.802-.359-.802-.8V2.735L7.166 6.963c-.151.152-.353.235-.567.235-.214 0-.415-.083-.566-.235-.151-.15-.235-.352-.235-.566 0-.214.084-.415.235-.567l4.228-4.228H7.727c-.442 0-.801-.36-.801-.8 0-.443.359-.802.8-.802z"/>
</svg>
