<svg xmlns="http://www.w3.org/2000/svg" width="13" height="13" viewBox="0 0 13 13">
    <path fill="#7BC961" fill-rule="evenodd" d="M8.638 2.416L7.264 3.79h-5.89v7.833h7.832v-5.89l1.374-1.374v7.951c0 .38-.308.687-.687.687H.687c-.38 0-.687-.308-.687-.687V3.103c0-.38.307-.687.687-.687h7.95zM12.195 0c.441 0 .8.36.8.801v4.468c0 .442-.359.801-.8.801-.442 0-.801-.359-.801-.8V2.734L7.165 6.963c-.15.151-.352.235-.566.235-.214 0-.415-.084-.566-.235-.152-.151-.235-.352-.235-.566 0-.214.083-.416.235-.567l4.228-4.228H7.726c-.442 0-.8-.36-.8-.801 0-.442.358-.801.8-.801z"/>
</svg>
