<svg xmlns="http://www.w3.org/2000/svg" width="120" height="79" viewBox="0 0 120 79">
    <path fill="#FFF" fill-rule="evenodd" d="M1.588 78.812V68.017h5.81l-.174 1.19H3.096v3.683h3.572v1.175H3.096v4.747H1.588zm15.558-10.795v10.795h-1.508V68.017h1.508zm12.501-.188c.688 0 1.284.097 1.786.29.503.193 1.003.493 1.5.9l-.888.91c-.392-.314-.768-.538-1.128-.674-.36-.136-.783-.204-1.27-.204-.56 0-1.077.149-1.548.447-.47.297-.855.773-1.15 1.425-.297.653-.445 1.481-.445 2.484 0 1.514.25 2.621.754 3.321.502.7 1.246 1.05 2.23 1.05.805 0 1.498-.162 2.08-.486v-3.259h-1.937l-.174-1.206h3.604v5.217c-1.133.637-2.324.956-3.573.956-1.44 0-2.564-.475-3.373-1.426-.81-.95-1.215-2.34-1.215-4.167 0-1.17.214-2.175.643-3.016.429-.841 1.005-1.478 1.73-1.912.726-.433 1.517-.65 2.374-.65zm23.852.188l-2.223 10.795h-1.937l-2.017-9.04-2.032 9.04H43.4l-2.222-10.795h1.477l1.762 9.495 2.112-9.495h1.603l2.16 9.495 1.825-9.495H53.5zM67.85 78.812v-5.06h-4.605v5.06h-1.508V68.017h1.508v4.512h4.605v-4.512h1.508v10.795h-1.508zm17.342-10.795l-.175 1.19h-4.24v3.526h3.684v1.19H80.78v3.698h4.54v1.191H79.27V68.017h5.923zm15.71 0l-.174 1.19H96.49v3.526h3.684v1.19H96.49v3.698h4.541v1.191h-6.05V68.017h5.923zm11.78 0v9.495h4.493l-.175 1.3h-5.827V68.017h1.508zM52.83 32.027H39l4.375-7.197h14.6c1.65-2.308 4.619-6.444 5.46-7.519 3.827-4.89 7.55-8.731 11.591-11.646C80.11 2 85.478 0 91.206 0 107.19 0 120 12.525 120 28.44c0 15.75-12.993 28.058-28.795 28.058-10.57 0-19.318-6.478-22.756-11.138l3.73-6.22c1.057 1.114 9.185 10.16 19.026 10.16 11.842 0 21.505-9.153 21.505-20.86 0-11.924-9.53-21.243-21.505-21.243-7.613 0-14.571 5.02-22 14.514-.39.499-1.291 1.73-2.295 3.12h14.007l-4.374 7.196H61.768c-1.684 2.355-4.404 6.138-5.203 7.16-3.827 4.89-7.55 8.73-11.591 11.645-5.083 3.666-10.452 5.666-16.18 5.666C12.81 56.498 0 43.973 0 28.058 0 12.307 12.993 0 28.795 0c10.57 0 19.318 6.477 22.756 11.138l-3.73 6.22c-1.057-1.115-9.185-10.16-19.026-10.16-11.842 0-21.505 9.153-21.505 20.86 0 11.924 9.53 21.243 21.505 21.243 7.613 0 14.571-5.02 22-14.514.357-.455 1.138-1.521 2.035-2.76z"/>
</svg>
