<svg xmlns="http://www.w3.org/2000/svg" width="70" height="33" viewBox="0 0 70 33">
    <path fill="#7BC961" fill-rule="evenodd" d="M30.745 18.581h-8.048l2.545-4.175h8.497c.96-1.34 2.688-3.739 3.178-4.363 2.227-2.837 4.394-5.065 6.746-6.756C46.62 1.16 49.745 0 53.078 0c9.303 0 16.758 7.267 16.758 16.5 0 9.138-7.562 16.278-16.758 16.278-6.151 0-11.242-3.758-13.243-6.461l2.17-3.609c.615.646 5.346 5.895 11.073 5.895 6.892 0 12.515-5.31 12.515-12.103 0-6.918-5.546-12.324-12.515-12.324-4.43 0-8.48 2.911-12.804 8.42-.227.29-.75 1.004-1.335 1.81h8.152l-2.546 4.175h-8.598c-.98 1.366-2.563 3.561-3.028 4.154-2.227 2.837-4.395 5.066-6.746 6.756-2.958 2.127-6.082 3.287-9.415 3.287C7.455 32.778 0 25.512 0 16.278 0 7.14 7.561 0 16.758 0 22.909 0 28 3.758 30 6.462L27.83 10.07c-.615-.646-5.345-5.894-11.072-5.894-6.892 0-12.516 5.31-12.516 12.102 0 6.919 5.547 12.325 12.516 12.325 4.43 0 8.48-2.912 12.803-8.42.207-.265.662-.883 1.184-1.602z"/>
</svg>
